{"title":"Everymans War 2009 BRRip 720p x264 Feel-Free","uid":6109265,"size":2129054650,"categoryP":"video","categoryS":"hd___movies","magnet":"?xt=urn:btih:01d198fd15eace7c3de7c984a1c0d59f93a66b52&amp;dn=Everymans+War+2009+BRRip+720p+x264+Feel-Free&amp;tr=udp%3A%2F%2Ftracker.openbittorrent.com%3A80&amp;tr=udp%3A%2F%2Fopen.demonii.com%3A1337&amp;tr=udp%3A%2F%2Ftracker.coppersurfer.tk%3A6969&amp;tr=udp%3A%2F%2Fexodus.desync.com%3A6969","seeders":1,"leechers":1,"uploader":"neon","files":9,"time":1295285223,"description":"Genre:War\nLanguage:English\n &lt;a href=&quot; http://www.imdb.com/title/tt1209319/&quot; rel=&quot;nofollow&quot; target=&quot;_NEW&quot;&gt; http://www.imdb.com/title/tt1209319/&lt;/a&gt;\nSource:1080p BluRay x264-LCHD\n\n\nFormat : Matroska\nFile size : 1.98 GiB\nDuration : 1h 44mn\nOverall bit rate : 2 704 Kbps\n\n\nVideo\nFormat settings, CABAC : Yes\nFormat settings, ReFrames : 4 frames\nCodec ID : V_MPEG4/ISO/AVC\nDuration : 1h 44mn\nBit rate : 2 266 Kbps\nNominal bit rate : 2 398 Kbps\nWidth : 1 280 pixels\nHeight : 570 pixels\nDisplay aspect ratio : 2.25:1\nFrame rate mode : Variable\nFrame rate : 23.976 fps\nColor space : YUV\nChroma subsampling : 4:2:0\nBit depth : 8 bits\nScan type : Progressive\nBits/(Pixel*Frame) : 0.130\nStream size : 1.66 GiB (84%)\nWriting library : x264\n\nAudio\nID : 2\nFormat : AC-3\nFormat/Info : Audio Coding 3\nMode extension : CM (complete main)\nCodec ID : A_AC3\nDuration : 1h 44mn\nBit rate mode : Constant\nBit rate : 384 Kbps\nChannel(s) : 6 channels\nChannel positions : Front: L C R, Side: L R, LFE\nSampling rate : 48.0 KHz\nBit depth : 16 bits\nVideo delay : -1mn 5s\nStream size : 288 MiB (14%)\nLanguage : English\n\n\nPlot:\nThe true story of Don Smith's heroic experience at the Battle of the Bulge while with the 94th Infantry\n &lt;a href=&quot;\nhttp://shareimage.org/images/kt5wttg68jgfmdu5fah3.png&quot; rel=&quot;nofollow&quot; target=&quot;_NEW&quot;&gt;\nhttp://shareimage.org/images/kt5wttg68jgfmdu5fah3.png&lt;/a&gt; &lt;a href=&quot;\nhttp://shareimage.org/images/5dktq7dul9ne7h1jnj5.png&quot; rel=&quot;nofollow&quot; target=&quot;_NEW&quot;&gt;\nhttp://shareimage.org/images/5dktq7dul9ne7h1jnj5.png&lt;/a&gt; &lt;a href=&quot;\nhttp://shareimage.org/images/auq6iv901ipn8jpri0jm.png&quot; rel=&quot;nofollow&quot; target=&quot;_NEW&quot;&gt;\nhttp://shareimage.org/images/auq6iv901ipn8jpri0jm.png&lt;/a&gt; &lt;a href=&quot;\nhttp://shareimage.org/images/t5pix1fupk6ebudxv.png&quot; rel=&quot;nofollow&quot; target=&quot;_NEW&quot;&gt;\nhttp://shareimage.org/images/t5pix1fupk6ebudxv.png&lt;/a&gt;","torrent":{"xt":"urn:btih:01d198fd15eace7c3de7c984a1c0d59f93a66b52","amp;dn":"Everymans+War+2009+BRRip+720p+x264+Feel-Free","amp;tr":["udp%3A%2F%2Ftracker.openbittorrent.com%3A80","udp%3A%2F%2Fopen.demonii.com%3A1337","udp%3A%2F%2Ftracker.coppersurfer.tk%3A6969","udp%3A%2F%2Fexodus.desync.com%3A6969"],"infoHash":"01d198fd15eace7c3de7c984a1c0d59f93a66b52","infoHashBuffer":{"type":"Buffer","data":[1,209,152,253,21,234,206,124,61,231,201,132,161,192,213,159,147,166,107,82]},"announce":[],"urlList":[]}}